<svg width="282" height="80" viewBox="0 0 282 80" fill="none" xmlns="http://www.w3.org/2000/svg">
<path d="M78.108 38.392C78.108 57.4644 61.6104 73.2839 40.804 73.2839C19.9976 73.2839 3.5 57.4644 3.5 38.392C3.5 19.3195 19.9976 3.5 40.804 3.5C61.6104 3.5 78.108 19.3195 78.108 38.392Z" stroke="#9D9D9D" stroke-width="7"/>
<path d="M18.2965 26.9347L9.05023 39.799L36.7889 30.5528L20.3065 80L36.7889 75.1759L56.0854 26.9347L72.9698 22.1105L80.608 7.23618L18.2965 26.9347Z" fill="#0075FF"/>
<path d="M118.783 25.602V32.315H109.669V60H101.29V32.315H92.176V25.602H118.783ZM121.322 46.28C121.322 43.4707 121.845 41.0043 122.89 38.881C123.968 36.7577 125.422 35.1243 127.251 33.981C129.081 32.8377 131.122 32.266 133.376 32.266C135.304 32.266 136.986 32.658 138.423 33.442C139.893 34.226 141.02 35.255 141.804 36.529V32.658H150.183V60H141.804V56.129C140.988 57.403 139.844 58.432 138.374 59.216C136.937 60 135.255 60.392 133.327 60.392C131.106 60.392 129.081 59.8203 127.251 58.677C125.422 57.501 123.968 55.8513 122.89 53.728C121.845 51.572 121.322 49.0893 121.322 46.28ZM141.804 46.329C141.804 44.2383 141.216 42.5887 140.04 41.38C138.897 40.1713 137.492 39.567 135.826 39.567C134.16 39.567 132.739 40.1713 131.563 41.38C130.42 42.556 129.848 44.1893 129.848 46.28C129.848 48.3707 130.42 50.0367 131.563 51.278C132.739 52.4867 134.16 53.091 135.826 53.091C137.492 53.091 138.897 52.4867 140.04 51.278C141.216 50.0693 141.804 48.4197 141.804 46.329ZM164.624 23.74V60H156.245V23.74H164.624ZM196.47 45.888C196.47 46.672 196.421 47.4887 196.323 48.338H177.36C177.491 50.0367 178.03 51.3433 178.977 52.258C179.957 53.14 181.15 53.581 182.554 53.581C184.645 53.581 186.099 52.699 186.915 50.935H195.833C195.376 52.7317 194.543 54.3487 193.334 55.786C192.158 57.2233 190.672 58.3503 188.875 59.167C187.079 59.9837 185.07 60.392 182.848 60.392C180.17 60.392 177.785 59.8203 175.694 58.677C173.604 57.5337 171.97 55.9003 170.794 53.777C169.618 51.6537 169.03 49.171 169.03 46.329C169.03 43.487 169.602 41.0043 170.745 38.881C171.921 36.7577 173.555 35.1243 175.645 33.981C177.736 32.8377 180.137 32.266 182.848 32.266C185.494 32.266 187.846 32.8213 189.904 33.932C191.962 35.0427 193.563 36.627 194.706 38.685C195.882 40.743 196.47 43.144 196.47 45.888ZM187.895 43.683C187.895 42.2457 187.405 41.1023 186.425 40.253C185.445 39.4037 184.22 38.979 182.75 38.979C181.346 38.979 180.153 39.3873 179.173 40.204C178.226 41.0207 177.638 42.1803 177.409 43.683H187.895ZM217.551 32.364C220.752 32.364 223.3 33.4093 225.195 35.5C227.122 37.558 228.086 40.4 228.086 44.026V60H219.756V45.153C219.756 43.3237 219.282 41.9027 218.335 40.89C217.387 39.8773 216.113 39.371 214.513 39.371C212.912 39.371 211.638 39.8773 210.691 40.89C209.743 41.9027 209.27 43.3237 209.27 45.153V60H200.891V32.658H209.27V36.284C210.119 35.0753 211.262 34.128 212.7 33.442C214.137 32.7233 215.754 32.364 217.551 32.364ZM249.147 52.895V60H244.884C241.846 60 239.478 59.265 237.779 57.795C236.08 56.2923 235.231 53.8587 235.231 50.494V39.616H231.899V32.658H235.231V25.994H243.61V32.658H249.098V39.616H243.61V50.592C243.61 51.4087 243.806 51.9967 244.198 52.356C244.59 52.7153 245.243 52.895 246.158 52.895H249.147ZM266.26 60.392C263.582 60.392 261.164 59.8203 259.008 58.677C256.885 57.5337 255.203 55.9003 253.961 53.777C252.753 51.6537 252.148 49.171 252.148 46.329C252.148 43.5197 252.769 41.0533 254.01 38.93C255.252 36.774 256.95 35.1243 259.106 33.981C261.262 32.8377 263.68 32.266 266.358 32.266C269.037 32.266 271.454 32.8377 273.61 33.981C275.766 35.1243 277.465 36.774 278.706 38.93C279.948 41.0533 280.568 43.5197 280.568 46.329C280.568 49.1383 279.931 51.621 278.657 53.777C277.416 55.9003 275.701 57.5337 273.512 58.677C271.356 59.8203 268.939 60.392 266.26 60.392ZM266.26 53.14C267.861 53.14 269.217 52.552 270.327 51.376C271.471 50.2 272.042 48.5177 272.042 46.329C272.042 44.1403 271.487 42.458 270.376 41.282C269.298 40.106 267.959 39.518 266.358 39.518C264.725 39.518 263.369 40.106 262.291 41.282C261.213 42.4253 260.674 44.1077 260.674 46.329C260.674 48.5177 261.197 50.2 262.242 51.376C263.32 52.552 264.66 53.14 266.26 53.14Z" fill="#0075FF"/>
</svg>
